<svg xmlns="http://www.w3.org/2000/svg" width="178" height="187" viewBox="0 0 178 187">
  <defs>
    <style>
      .cls-1 {
        fill: #e9b106;
        stroke: #e9b106;
        stroke-linecap: round;
        stroke-width: 3px;
        fill-rule: evenodd;
      }
    </style>
  </defs>
  <path class="cls-1" d="M91,19s16,43,28,55,52,25,52,25-40.5,17.5-53,30c-13.282,13.282-27,50-27,50s-14-39-27-52C47.794,110.794,11,99,11,99S51.75,87.25,64,75C76.72,62.28,91,19,91,19Z"/>
  <path id="Shape_1_copy" data-name="Shape 1 copy" class="cls-1" d="M33.106,7.205s4.153,11.162,7.268,14.277,13.5,6.49,13.5,6.49S43.359,32.515,40.114,35.76c-3.448,3.448-7.009,12.979-7.009,12.979s-3.634-10.124-7.009-13.5c-4.207-4.207-13.758-7.268-13.758-7.268s10.578-3.05,13.758-6.23C29.4,18.44,33.106,7.205,33.106,7.205Z"/>
</svg>
